<?xml version="1.0" encoding="utf-8"?>
<!-- Generator: Adobe Illustrator 24.0.0, SVG Export Plug-In . SVG Version: 6.00 Build 0)  -->
<svg version="1.1" id="Layer_1" xmlns="http://www.w3.org/2000/svg" xmlns:xlink="http://www.w3.org/1999/xlink" x="0px" y="0px"
	 viewBox="0 0 850 364.7" style="enable-background:new 0 0 850 364.7;" xml:space="preserve">
<style type="text/css">
	.st0{fill:#FFFFFF;}
	.st1{font-family:'BaskOldFace';}
	.st2{font-size:300px;}
	.st3{display:none;fill:#FFFFFF;}
	.st4{font-family:'Arial-BoldMT';}
	.st5{font-size:59px;}
	.st6{letter-spacing:38;}
	.st7{fill:#669933;}
	.st8{fill:none;stroke:#669933;stroke-width:12;stroke-miterlimit:10;}
	.st9{fill:none;stroke:#669933;stroke-width:11;stroke-miterlimit:10;}
</style>
<g>
	<text transform="matrix(1 0 0 1 20.269 261.2202)" class="st0 st1 st2">él</text>
	<text transform="matrix(1 0 0 1 421.269 261.2202)" class="st0 st1 st2">die</text>
	<text transform="matrix(1 0 0 1 55.9834 353.6162)" class="st3 st4 st5 st6">CHANDELLE</text>
	<path class="st7" d="M378.9,261.5h-101c-3.3,0-6-2.7-6-6v0c0-3.3,2.7-6,6-6h101c3.3,0,6,2.7,6,6v0
		C384.9,258.8,382.2,261.5,378.9,261.5z"/>
	<path class="st8" d="M381.1,164.5c0,31.2-23,56.5-51.4,56.5s-51.4-25.3-51.4-56.5c0-30.1,47.7-96.5,51.2-101.2
		c0.1-0.1,0.3-0.1,0.4,0c1.1,2.1,6.1,14.2,24.1,39.2C380.3,139.2,381.1,147.3,381.1,164.5z"/>
	<path class="st9" d="M280.4,182l48.4-37.8c0.7-0.4,1.5-0.4,2.1,0l47.4,37.8"/>
</g>
<circle class="st7" cx="820.4" cy="240" r="21.5"/>
</svg>
