<svg id="Layer_1" data-name="Layer 1" xmlns="http://www.w3.org/2000/svg" viewBox="0 0 821.65 329"><defs><style>.cls-1{font-size:300px;fill:#fff;font-family:BaskOldFace, Baskerville Old Face;}.cls-2{fill:#693;}.cls-3,.cls-4{fill:none;stroke:#693;stroke-miterlimit:10;}.cls-3{stroke-width:12px;}.cls-4{stroke-width:11px;}</style></defs><title>Elodie_logo_white_no_chandelle</title><text class="cls-1" transform="translate(0 250.05)">él</text><text class="cls-1" transform="translate(401 250.05)">die</text><rect class="cls-2" x="251.65" y="238.33" width="113" height="12" rx="6"/><path class="cls-3" d="M925.13,497c0,31.2-23,56.5-51.38,56.5s-51.38-25.3-51.38-56.5c0-30.07,47.72-96.46,51.18-101.23a.21.21,0,0,1,.35,0C875,397.86,880,410,898,435,924.42,471.7,925.13,479.8,925.13,497Z" transform="translate(-564.35 -343.67)"/><path class="cls-4" d="M824.5,514.5l48.42-37.81a2,2,0,0,1,2.14,0L922.5,514.5" transform="translate(-564.35 -343.67)"/><circle class="cls-2" cx="800.15" cy="228.83" r="21.5"/></svg>