<?xml version="1.0" encoding="utf-8"?>
<!-- Generator: Adobe Illustrator 24.0.0, SVG Export Plug-In . SVG Version: 6.00 Build 0)  -->
<svg version="1.1" id="Layer_1" xmlns="http://www.w3.org/2000/svg" xmlns:xlink="http://www.w3.org/1999/xlink" x="0px" y="0px"
	 viewBox="0 0 130 233" style="enable-background:new 0 0 130 233;" xml:space="preserve">
<style type="text/css">
	.st0{fill:#7A8444;stroke:#7A8444;stroke-miterlimit:10;}
	.st1{fill:none;stroke:#7A8444;stroke-width:12;stroke-miterlimit:10;}
	.st2{fill:none;stroke:#7A8444;stroke-width:11;stroke-miterlimit:10;}
	.st3{display:none;fill:#7A8444;stroke:#FFFFFF;stroke-miterlimit:10;}
</style>
<g>
	
		<text transform="matrix(1 0 0 1 -244.0001 218.2434)" style="display:none;enable-background:new    ; font-family:'BaskOldFace'; font-size:300px;">él</text>
	
		<text transform="matrix(1 0 0 1 156.9999 218.2434)" style="display:none;enable-background:new    ; font-family:'BaskOldFace'; font-size:300px;">die</text>
	
		<text transform="matrix(1 0 0 1 -208.2858 310.6394)" style="display:none;enable-background:new    ; font-family:'Arial-BoldMT'; font-size:59px; letter-spacing:35;">CHANDELLE</text>
	<path class="st0" d="M114.65,218.53h-101c-3.3,0-6-2.7-6-6l0,0c0-3.3,2.7-6,6-6h101c3.3,0,6,2.7,6,6l0,0
		C120.65,215.83,117.95,218.53,114.65,218.53z"/>
	<path class="st1" d="M116.78,121.53c0,31.2-23.01,56.5-51.38,56.5s-51.38-25.3-51.38-56.5c0-30.07,47.73-96.46,51.19-101.23
		c0.09-0.13,0.28-0.11,0.35,0.03c1.07,2.06,6.1,14.2,24.1,39.2C116.07,96.23,116.78,104.33,116.78,121.53z"/>
	<path class="st2" d="M16.15,139.03l48.42-37.81c0.65-0.42,1.49-0.41,2.14,0.02l47.44,37.79"/>
</g>
<circle class="st3" cx="556.9" cy="201.53" r="22.3"/>
</svg>
