<?xml version="1.0" encoding="utf-8"?>
<!-- Generator: Adobe Illustrator 24.0.0, SVG Export Plug-In . SVG Version: 6.00 Build 0)  -->
<svg version="1.1" id="Layer_1" xmlns="http://www.w3.org/2000/svg" xmlns:xlink="http://www.w3.org/1999/xlink" x="0px" y="0px"
	 viewBox="0 0 131 222.83" style="enable-background:new 0 0 131 222.83;" xml:space="preserve">
<style type="text/css">
	.st0{fill:none;stroke:#000000;stroke-width:12;stroke-miterlimit:10;}
	.st1{fill:none;stroke:#000000;stroke-width:11;stroke-miterlimit:10;}
	.st2{fill:#E2A817;stroke:#FFFFFF;stroke-miterlimit:10;}
</style>
<g>
	<text transform="matrix(1 0 0 1 -244.0002 217.2434)" style="font-family:'BaskOldFace'; font-size:300px;">él</text>
	<text transform="matrix(1 0 0 1 156.9998 217.2434)" style="font-family:'BaskOldFace'; font-size:300px;">die</text>
	
		<text transform="matrix(1 0 0 1 -208.2859 309.6394)" style="display:none;enable-background:new    ; font-family:'Arial-BoldMT'; font-size:59px; letter-spacing:37;">CHANDELLE</text>
	<path d="M114.65,217.53h-101c-3.3,0-6-2.7-6-6l0,0c0-3.3,2.7-6,6-6h101c3.3,0,6,2.7,6,6l0,0
		C120.65,214.83,117.95,217.53,114.65,217.53z"/>
	<path class="st0" d="M116.78,120.53c0,31.2-23.01,56.5-51.38,56.5s-51.38-25.3-51.38-56.5c0-30.07,47.73-96.46,51.19-101.23
		c0.09-0.13,0.28-0.11,0.35,0.03c1.07,2.06,6.1,14.2,24.1,39.2C116.07,95.23,116.78,103.33,116.78,120.53z"/>
	<path class="st1" d="M16.15,138.03l48.42-37.81c0.65-0.42,1.49-0.41,2.14,0.02l47.44,37.79"/>
</g>
<circle class="st2" cx="556.9" cy="200.53" r="22.3"/>
</svg>
