<?xml version="1.0" encoding="utf-8"?>
<!-- Generator: Adobe Illustrator 24.0.0, SVG Export Plug-In . SVG Version: 6.00 Build 0)  -->
<svg version="1.1" id="Layer_1" xmlns="http://www.w3.org/2000/svg" xmlns:xlink="http://www.w3.org/1999/xlink" x="0px" y="0px"
	 viewBox="0 0 766.04 364.66" style="enable-background:new 0 0 766.04 364.66;" xml:space="preserve">
<style type="text/css">
	.st0{font-family:'BaskOldFace';}
	.st1{font-size:300px;}
	.st2{display:none;}
	.st3{font-family:'Arial-BoldMT';}
	.st4{font-size:59px;}
	.st5{letter-spacing:38;}
	.st6{fill:none;stroke:#000000;stroke-width:12;stroke-miterlimit:10;}
	.st7{fill:none;stroke:#000000;stroke-width:11;stroke-miterlimit:10;}
</style>
<g>
	<text transform="matrix(1 0 0 1 -9.155273e-05 220.2434)" class="st0 st1">él</text>
	<text transform="matrix(1 0 0 1 400.9999 220.2434)" class="st0 st1">die</text>
	<text transform="matrix(1 0 0 1 35.7142 312.6394)" class="st2 st3 st4 st5">CHANDELLE</text>
	<path d="M358.65,220.53h-101c-3.3,0-6-2.7-6-6v0c0-3.3,2.7-6,6-6h101c3.3,0,6,2.7,6,6v0C364.65,217.83,361.95,220.53,358.65,220.53
		z"/>
	<path class="st6" d="M360.78,123.53c0,31.2-23.01,56.5-51.38,56.5s-51.38-25.3-51.38-56.5c0-30.07,47.73-96.46,51.19-101.23
		c0.09-0.13,0.28-0.11,0.35,0.03c1.07,2.06,6.1,14.2,24.1,39.2C360.07,98.23,360.78,106.33,360.78,123.53z"/>
	<path class="st7" d="M260.15,141.03l48.42-37.81c0.65-0.42,1.49-0.41,2.14,0.02l47.44,37.79"/>
</g>
</svg>
