<?xml version="1.0" encoding="utf-8"?>
<!-- Generator: Adobe Illustrator 24.0.0, SVG Export Plug-In . SVG Version: 6.00 Build 0)  -->
<svg version="1.1" id="Layer_1" xmlns="http://www.w3.org/2000/svg" xmlns:xlink="http://www.w3.org/1999/xlink" x="0px" y="0px"
	 viewBox="0 0 850 364.66" style="enable-background:new 0 0 850 364.66;" xml:space="preserve">
<style type="text/css">
	.st0{fill:#FFFFFF;}
	.st1{font-family:'BaskOldFace';}
	.st2{font-size:300px;}
	.st3{display:none;enable-background:new    ;}
	.st4{font-family:'Arial-BoldMT';}
	.st5{font-size:59px;}
	.st6{letter-spacing:35;}
	.st7{fill:#7A8444;stroke:#7A8444;stroke-miterlimit:10;}
	.st8{fill:none;stroke:#7A8444;stroke-width:12;stroke-miterlimit:10;}
	.st9{fill:none;stroke:#7A8444;stroke-width:11;stroke-miterlimit:10;}
	.st10{fill:#7A8444;stroke:#FFFFFF;stroke-miterlimit:10;}
</style>
<g>
	<text transform="matrix(1 0 0 1 -9.155273e-05 243.2434)" class="st0 st1 st2">él</text>
	<text transform="matrix(1 0 0 1 400.9999 243.2434)" class="st0 st1 st2">die</text>
	<text transform="matrix(1 0 0 1 35.7142 335.6394)" class="st3 st4 st5 st6">CHANDELLE</text>
	<path class="st7" d="M358.65,243.53h-101c-3.3,0-6-2.7-6-6l0,0c0-3.3,2.7-6,6-6h101c3.3,0,6,2.7,6,6l0,0
		C364.65,240.83,361.95,243.53,358.65,243.53z"/>
	<path class="st8" d="M360.78,146.53c0,31.2-23.01,56.5-51.38,56.5s-51.38-25.3-51.38-56.5c0-30.07,47.73-96.46,51.19-101.23
		c0.09-0.13,0.28-0.11,0.35,0.03c1.07,2.06,6.1,14.2,24.1,39.2C360.07,121.23,360.78,129.33,360.78,146.53z"/>
	<path class="st9" d="M260.15,164.03l48.42-37.81c0.65-0.42,1.49-0.41,2.14,0.02l47.44,37.79"/>
</g>
<circle class="st10" cx="800.9" cy="226.53" r="22.3"/>
</svg>
