<?xml version="1.0" encoding="utf-8"?>
<!-- Generator: Adobe Illustrator 24.0.0, SVG Export Plug-In . SVG Version: 6.00 Build 0)  -->
<svg version="1.1" id="Layer_1" xmlns="http://www.w3.org/2000/svg" xmlns:xlink="http://www.w3.org/1999/xlink" x="0px" y="0px"
	 viewBox="0 0 790.38 363.46" style="enable-background:new 0 0 790.38 363.46;" xml:space="preserve">
<style type="text/css">
	.st0{font-family:'BaskOldFace';}
	.st1{font-size:300px;}
	.st2{font-family:'Arial-BoldMT';}
	.st3{font-size:59px;}
	.st4{letter-spacing:38;}
	.st5{fill:none;stroke:#000000;stroke-width:12;stroke-miterlimit:10;}
	.st6{fill:none;stroke:#000000;stroke-width:11;stroke-miterlimit:10;}
</style>
<g>
	<text transform="matrix(1 0 0 1 14.9613 241.4066)" class="st0 st1">él</text>
	<text transform="matrix(1 0 0 1 415.9613 241.4066)" class="st0 st1">die</text>
	<text transform="matrix(1 0 0 1 50.6757 333.8027)" class="st2 st3 st4">CHANDELLE</text>
	<path d="M373.61,241.69h-101c-3.3,0-6-2.7-6-6v0c0-3.3,2.7-6,6-6h101c3.3,0,6,2.7,6,6v0C379.61,238.99,376.91,241.69,373.61,241.69
		z"/>
	<path class="st5" d="M375.74,144.69c0,31.2-23.01,56.5-51.38,56.5c-28.38,0-51.38-25.3-51.38-56.5
		c0-30.07,47.73-96.46,51.19-101.23c0.09-0.13,0.28-0.11,0.35,0.03c1.07,2.06,6.1,14.2,24.1,39.2
		C375.03,119.39,375.74,127.49,375.74,144.69z"/>
	<path class="st6" d="M275.11,162.19l48.42-37.81c0.65-0.42,1.49-0.41,2.14,0.02l47.44,37.79"/>
</g>
</svg>
